<svg width="100" height="100" viewBox="0 0 100 100" fill="none" xmlns="http://www.w3.org/2000/svg">
<path d="M93.2891 7.47265C93.2534 7.29991 93.1692 7.14092 93.0464 7.01431C92.9236 6.8877 92.7673 6.79873 92.5957 6.75781C81.1563 3.96093 54.7246 13.9277 40.4043 28.2422C37.8502 30.7757 35.5217 33.527 33.4453 36.4648C29.0293 36.0742 24.6133 36.4004 20.8496 38.041C10.2305 42.7148 7.13867 54.9102 6.27734 60.1562C6.22849 60.4434 6.24692 60.7379 6.33118 61.0168C6.41544 61.2956 6.56324 61.551 6.76296 61.7631C6.96267 61.9751 7.20885 62.1379 7.48213 62.2386C7.75541 62.3394 8.04835 62.3754 8.33789 62.3438L25.3906 60.4629C25.4028 61.7486 25.4804 63.0328 25.623 64.3105C25.7089 65.1979 26.1028 66.0271 26.7363 66.6543L33.3398 73.2422C33.9676 73.8749 34.7965 74.2687 35.6836 74.3555C36.9542 74.4976 38.2313 74.5752 39.5098 74.5879L37.6387 91.6191C37.6075 91.9086 37.6437 92.2013 37.7446 92.4744C37.8455 92.7475 38.0083 92.9935 38.2203 93.1931C38.4322 93.3928 38.6875 93.5406 38.9661 93.625C39.2447 93.7094 39.5391 93.7281 39.8262 93.6797C45.0625 92.8399 57.2793 89.7481 61.9258 79.1289C63.5664 75.3652 63.9023 70.9707 63.5234 66.5762C66.4684 64.4997 69.2269 62.1706 71.7676 59.6152C86.1328 45.3223 96.043 19.4805 93.2891 7.47265ZM57.4356 42.5644C56.1238 41.2536 55.2303 39.5831 54.8681 37.7644C54.5059 35.9456 54.6912 34.0603 55.4005 32.3469C56.1099 30.6335 57.3115 29.169 58.8534 28.1386C60.3952 27.1081 62.208 26.5582 64.0625 26.5582C65.917 26.5582 67.7298 27.1081 69.2716 28.1386C70.8135 29.169 72.0151 30.6335 72.7245 32.3469C73.4339 34.0603 73.6192 35.9456 73.2569 37.7644C72.8947 39.5831 72.0012 41.2536 70.6895 42.5644C69.8196 43.4355 68.7866 44.1265 67.6495 44.598C66.5124 45.0695 65.2935 45.3122 64.0625 45.3122C62.8315 45.3122 61.6126 45.0695 60.4755 44.598C59.3384 44.1265 58.3054 43.4355 57.4356 42.5644Z" fill="#541693"/>
<path d="M32.8906 78.0137C31.8203 79.086 30.1035 79.5039 28.0371 79.8613C23.3945 80.6524 19.2949 76.6406 20.1289 71.9473C20.4473 70.168 21.3887 67.6738 21.9746 67.0879C22.1027 66.9623 22.1879 66.7995 22.2182 66.6227C22.2486 66.4459 22.2224 66.2641 22.1435 66.103C22.0645 65.9419 21.9369 65.8098 21.7786 65.7254C21.6203 65.641 21.4395 65.6086 21.2617 65.6328C18.6655 65.9505 16.2503 67.1275 14.4004 68.9766C9.80859 73.5723 9.375 90.625 9.375 90.625C9.375 90.625 26.4375 90.1914 31.0293 85.5957C32.8841 83.7474 34.0626 81.3284 34.375 78.7285C34.4473 77.9121 33.4531 77.4258 32.8906 78.0137Z" fill="#CE3333"/>
</svg>
