<svg width="49" height="42" viewBox="0 0 49 42" fill="none" xmlns="http://www.w3.org/2000/svg">
<path d="M42.3297 33.25L31.9408 24.2305C33.8614 21.6963 34.6306 18.6336 34.0996 15.6353C33.5685 12.637 31.775 9.91638 29.0661 8.00023C26.3573 6.08408 22.9259 5.10869 19.4363 5.26291C15.9467 5.41712 12.6471 6.68996 10.1764 8.83501C7.70568 10.9801 6.23958 13.8447 6.06196 16.8743C5.88433 19.904 7.00781 22.883 9.21489 25.2348C11.422 27.5866 14.5556 29.1437 18.0092 29.6048C21.4627 30.0658 24.9904 29.398 27.9094 27.7305L38.2983 36.75L42.3297 33.25ZM10.0785 17.5C10.0785 12.6753 14.5997 8.75001 20.157 8.75001C25.7143 8.75001 30.2355 12.6753 30.2355 17.5C30.2355 22.3248 25.7143 26.25 20.157 26.25C14.5997 26.25 10.0785 22.3248 10.0785 17.5Z" fill="white"/>
</svg>
